<svg width="170" height="75" viewBox="0 0 170 75" fill="none" xmlns="http://www.w3.org/2000/svg">
<path d="M87.3182 41.2486C86.1581 41.2486 85.1075 40.9503 84.1662 40.3537C83.2315 39.7505 82.4891 38.8655 81.9389 37.6989C81.3954 36.5256 81.1236 35.0871 81.1236 33.3835C81.1236 31.6335 81.4053 30.1785 81.9688 29.0185C82.5322 27.8518 83.2813 26.9801 84.2159 26.4034C85.1572 25.8201 86.188 25.5284 87.3082 25.5284C88.1634 25.5284 88.8759 25.6742 89.446 25.9659C90.0227 26.2509 90.4867 26.6089 90.8381 27.0398C91.196 27.464 91.4678 27.8816 91.6534 28.2926H91.7827V20.6364H96.0085V41H91.8324V38.554H91.6534C91.4545 38.9782 91.1728 39.3991 90.8082 39.8168C90.4503 40.2277 89.983 40.5691 89.4062 40.8409C88.8362 41.1127 88.1402 41.2486 87.3182 41.2486ZM88.6605 37.8778C89.3433 37.8778 89.92 37.6922 90.3906 37.321C90.8679 36.9432 91.2325 36.4162 91.4844 35.7401C91.7429 35.0639 91.8722 34.2718 91.8722 33.3636C91.8722 32.4555 91.7462 31.6667 91.4943 30.9972C91.2424 30.3277 90.8778 29.8106 90.4006 29.446C89.9233 29.0814 89.3433 28.8991 88.6605 28.8991C87.9645 28.8991 87.3778 29.0881 86.9006 29.4659C86.4233 29.8437 86.062 30.3674 85.8168 31.0369C85.5715 31.7064 85.4489 32.482 85.4489 33.3636C85.4489 34.2519 85.5715 35.0374 85.8168 35.7202C86.0687 36.3963 86.4299 36.9266 86.9006 37.3111C87.3778 37.6889 87.9645 37.8778 88.6605 37.8778ZM106.392 41.2983C104.847 41.2983 103.511 40.9702 102.385 40.3139C101.264 39.651 100.399 38.7296 99.7894 37.5497C99.1796 36.3632 98.8746 34.9877 98.8746 33.4233C98.8746 31.8456 99.1796 30.4669 99.7894 29.2869C100.399 28.1004 101.264 27.179 102.385 26.5227C103.511 25.8598 104.847 25.5284 106.392 25.5284C107.936 25.5284 109.269 25.8598 110.389 26.5227C111.516 27.179 112.384 28.1004 112.994 29.2869C113.604 30.4669 113.909 31.8456 113.909 33.4233C113.909 34.9877 113.604 36.3632 112.994 37.5497C112.384 38.7296 111.516 39.651 110.389 40.3139C109.269 40.9702 107.936 41.2983 106.392 41.2983ZM106.412 38.017C107.114 38.017 107.701 37.8182 108.172 37.4205C108.642 37.0161 108.997 36.4659 109.235 35.7699C109.481 35.0739 109.603 34.2817 109.603 33.3935C109.603 32.5052 109.481 31.7131 109.235 31.017C108.997 30.321 108.642 29.7708 108.172 29.3665C107.701 28.9621 107.114 28.7599 106.412 28.7599C105.702 28.7599 105.106 28.9621 104.622 29.3665C104.145 29.7708 103.783 30.321 103.538 31.017C103.299 31.7131 103.18 32.5052 103.18 33.3935C103.18 34.2817 103.299 35.0739 103.538 35.7699C103.783 36.4659 104.145 37.0161 104.622 37.4205C105.106 37.8182 105.702 38.017 106.412 38.017ZM126.457 34.4972V25.7273H130.693V41H126.626V38.2259H126.467C126.122 39.1207 125.549 39.84 124.747 40.3835C123.951 40.9271 122.98 41.1989 121.833 41.1989C120.813 41.1989 119.914 40.9669 119.139 40.5028C118.363 40.0388 117.757 39.3793 117.319 38.5241C116.888 37.669 116.67 36.6449 116.663 35.4517V25.7273H120.899V34.696C120.905 35.5975 121.147 36.3101 121.625 36.8338C122.102 37.3575 122.742 37.6193 123.544 37.6193C124.054 37.6193 124.531 37.5033 124.975 37.2713C125.42 37.0327 125.778 36.6813 126.049 36.2173C126.328 35.7533 126.464 35.1799 126.457 34.4972ZM134.161 41V20.6364H138.396V28.2926H138.526C138.711 27.8816 138.98 27.464 139.331 27.0398C139.689 26.6089 140.153 26.2509 140.723 25.9659C141.3 25.6742 142.016 25.5284 142.871 25.5284C143.984 25.5284 145.012 25.8201 145.953 26.4034C146.894 26.9801 147.647 27.8518 148.21 29.0185C148.774 30.1785 149.055 31.6335 149.055 33.3835C149.055 35.0871 148.78 36.5256 148.23 37.6989C147.687 38.8655 146.944 39.7505 146.003 40.3537C145.068 40.9503 144.021 41.2486 142.861 41.2486C142.039 41.2486 141.339 41.1127 140.763 40.8409C140.193 40.5691 139.725 40.2277 139.361 39.8168C138.996 39.3991 138.718 38.9782 138.526 38.554H138.337V41H134.161ZM138.307 33.3636C138.307 34.2718 138.433 35.0639 138.685 35.7401C138.937 36.4162 139.301 36.9432 139.778 37.321C140.256 37.6922 140.836 37.8778 141.518 37.8778C142.208 37.8778 142.791 37.6889 143.268 37.3111C143.746 36.9266 144.107 36.3963 144.352 35.7202C144.604 35.0374 144.73 34.2519 144.73 33.3636C144.73 32.482 144.607 31.7064 144.362 31.0369C144.117 30.3674 143.756 29.8437 143.278 29.4659C142.801 29.0881 142.214 28.8991 141.518 28.8991C140.829 28.8991 140.246 29.0814 139.768 29.446C139.298 29.8106 138.937 30.3277 138.685 30.9972C138.433 31.6667 138.307 32.4555 138.307 33.3636ZM160.005 25.7273V28.9091H150.808V25.7273H160.005ZM152.896 22.0682H157.132V36.3068C157.132 36.6979 157.191 37.0028 157.311 37.2216C157.43 37.4337 157.596 37.5829 157.808 37.669C158.027 37.7552 158.279 37.7983 158.564 37.7983C158.762 37.7983 158.961 37.7817 159.16 37.7486C159.359 37.7088 159.511 37.679 159.618 37.6591L160.284 40.8111C160.072 40.8774 159.773 40.9536 159.389 41.0398C159.004 41.1326 158.537 41.1889 157.987 41.2088C156.966 41.2486 156.071 41.1127 155.302 40.8011C154.54 40.4896 153.947 40.0057 153.522 39.3494C153.098 38.6932 152.889 37.8646 152.896 36.8636V22.0682Z" fill="url(#paint0_linear_12619_1591)"/>
<path d="M9.20455 43.3196C7.52841 43.3196 6.08665 42.9645 4.87926 42.2543C3.67898 41.5369 2.75568 40.5426 2.10938 39.2713C1.47017 38 1.15057 36.5369 1.15057 34.8821C1.15057 33.206 1.47372 31.7358 2.12003 30.4716C2.77344 29.2003 3.70028 28.2095 4.90057 27.4993C6.10085 26.782 7.52841 26.4233 9.18324 26.4233C10.6108 26.4233 11.8608 26.6825 12.9332 27.201C14.0057 27.7195 14.8544 28.4474 15.4794 29.3849C16.1044 30.3224 16.4489 31.4233 16.5128 32.6875H12.2301C12.1094 31.8707 11.7898 31.2138 11.2713 30.7166C10.7599 30.2124 10.0888 29.9602 9.25781 29.9602C8.55469 29.9602 7.94034 30.152 7.41477 30.5355C6.89631 30.9119 6.49148 31.4624 6.20028 32.1868C5.90909 32.9112 5.76349 33.7884 5.76349 34.8182C5.76349 35.8622 5.90554 36.75 6.18963 37.4815C6.48082 38.2131 6.8892 38.7706 7.41477 39.1541C7.94034 39.5376 8.55469 39.7294 9.25781 39.7294C9.77628 39.7294 10.2415 39.6229 10.6534 39.4098C11.0724 39.1967 11.4169 38.8878 11.6868 38.483C11.9638 38.071 12.1449 37.5774 12.2301 37.0021H16.5128C16.4418 38.2521 16.1009 39.353 15.4901 40.3047C14.8864 41.2493 14.0518 41.9879 12.9865 42.5206C11.9212 43.0533 10.6605 43.3196 9.20455 43.3196ZM19.4185 43V26.6364H23.8184V29.4915H23.9888C24.2871 28.4759 24.7878 27.7088 25.4909 27.1903C26.1941 26.6648 27.0037 26.402 27.9199 26.402C28.1472 26.402 28.3922 26.4162 28.655 26.4446C28.9178 26.473 29.1486 26.5121 29.3475 26.5618V30.5888C29.1344 30.5249 28.8397 30.468 28.4632 30.4183C28.0868 30.3686 27.7424 30.3438 27.4299 30.3438C26.7623 30.3438 26.1657 30.4893 25.6401 30.7805C25.1216 31.0646 24.7097 31.4624 24.4043 31.9737C24.106 32.4851 23.9569 33.0746 23.9569 33.7422V43H19.4185ZM42.1875 36.0327V26.6364H46.7259V43H42.3686V40.0277H42.1982C41.8288 40.9865 41.2145 41.7571 40.3551 42.3395C39.5028 42.9219 38.4624 43.2131 37.2337 43.2131C36.1399 43.2131 35.1776 42.9645 34.3466 42.4673C33.5156 41.9702 32.8658 41.2635 32.397 40.3473C31.9354 39.4311 31.701 38.3338 31.6939 37.0554V26.6364H36.2322V36.2457C36.2393 37.2116 36.4986 37.9751 37.0099 38.5362C37.5213 39.0973 38.2067 39.3778 39.0661 39.3778C39.6129 39.3778 40.1243 39.2536 40.6001 39.005C41.076 38.7493 41.4595 38.3729 41.7507 37.8757C42.049 37.3786 42.1946 36.7642 42.1875 36.0327ZM57.8134 43.3196C56.1301 43.3196 54.6813 42.9787 53.4668 42.2969C52.2594 41.608 51.329 40.6349 50.6756 39.3778C50.0222 38.1136 49.6955 36.6186 49.6955 34.8928C49.6955 33.2095 50.0222 31.7322 50.6756 30.4609C51.329 29.1896 52.2488 28.1989 53.4348 27.4886C54.628 26.7784 56.0272 26.4233 57.6323 26.4233C58.7118 26.4233 59.7168 26.5973 60.6472 26.9453C61.5847 27.2862 62.4015 27.8011 63.0975 28.4901C63.8006 29.179 64.3475 30.0455 64.7381 31.0895C65.1287 32.1264 65.324 33.3409 65.324 34.733V35.9794H51.5066V33.1669H61.052C61.052 32.5135 60.91 31.9347 60.6259 31.4304C60.3418 30.9261 59.9476 30.532 59.4434 30.2479C58.9462 29.9567 58.3674 29.8111 57.7069 29.8111C57.0179 29.8111 56.4071 29.9709 55.8745 30.2905C55.3489 30.603 54.937 31.0256 54.6387 31.5582C54.3404 32.0838 54.1877 32.6697 54.1806 33.3161V35.9901C54.1806 36.7997 54.3297 37.4993 54.628 38.0888C54.9334 38.6783 55.3631 39.1328 55.9171 39.4524C56.4711 39.772 57.128 39.9318 57.888 39.9318C58.3922 39.9318 58.8539 39.8608 59.2729 39.7188C59.6919 39.5767 60.0506 39.3636 60.3489 39.0795C60.6472 38.7955 60.8745 38.4474 61.0307 38.0355L65.2282 38.3125C65.0151 39.321 64.5783 40.2017 63.9178 40.9545C63.2644 41.7003 62.4192 42.2827 61.3823 42.7017C60.3525 43.1136 59.1628 43.3196 57.8134 43.3196ZM72.824 21.1818V43H68.2857V21.1818H72.824Z" fill="black"/>
<path d="M94 15.9024V8.73438C94 5.56737 96.5674 3 99.7344 3H161.379C164.546 3 167.113 5.56737 167.113 8.73438V48.8751C167.113 52.0421 164.546 54.6094 161.379 54.6094H151.344L154.698 70.2603C154.991 71.6282 153.351 72.563 152.323 71.6141L137.008 57.4766H99.7344C96.5674 57.4766 94 54.9093 94 51.7422V48.8751" stroke="url(#paint1_linear_12619_1591)" stroke-width="4.30079"/>
<defs>
<linearGradient id="paint0_linear_12619_1591" x1="80" y1="14" x2="99.13" y2="67.9084" gradientUnits="userSpaceOnUse">
<stop stop-color="#485BFF"/>
<stop offset="1" stop-color="#FF59F8"/>
</linearGradient>
<linearGradient id="paint1_linear_12619_1591" x1="94" y1="3" x2="154.211" y2="77.547" gradientUnits="userSpaceOnUse">
<stop stop-color="#485BFF"/>
<stop offset="1" stop-color="#FF59F8"/>
</linearGradient>
</defs>
</svg>